<svg width="293" height="44" viewBox="0 0 293 44" fill="none" xmlns="http://www.w3.org/2000/svg"><path d="M62.7783 11.0972L68.0617 26.0664L73.3104 11.0972H78.9045V31.7361H74.6572V26.0664L75.0715 16.3174L69.512 31.7015H66.6113L61.0518 16.352L61.4661 26.0664V31.7015H57.2188V11.0972H62.7783ZM91.2323 31.7361C91.0251 31.2867 90.887 30.8372 90.8179 30.3533C89.851 31.4595 88.4352 32.0472 86.9504 32.0127C85.6037 32.0472 84.2569 31.5978 83.221 30.699C82.2541 29.8693 81.7016 28.6593 81.7361 27.4147C81.6671 25.9282 82.3577 24.5453 83.5318 23.681C84.7404 22.8168 86.4669 22.3673 88.746 22.3673H90.6453V21.5031C90.6798 20.8808 90.4726 20.2931 90.0928 19.8091C89.6438 19.3597 89.0223 19.1177 88.3662 19.1868C87.7791 19.1522 87.1921 19.3251 86.7432 19.6708C86.3634 20.0165 86.1216 20.5005 86.1562 21.0191H82.0814C82.0814 20.1202 82.3577 19.2559 82.9102 18.5645C83.4972 17.7694 84.326 17.1471 85.2238 16.8014C86.2943 16.352 87.4338 16.1445 88.6079 16.1445C90.2309 16.0408 91.8193 16.5594 93.097 17.562C94.2365 18.5645 94.8581 20.0511 94.7545 21.5722V28.2098C94.6855 29.3507 94.8926 30.457 95.3761 31.5287V31.7707H91.2323V31.7361ZM87.8482 28.8667C88.4352 28.8667 88.9878 28.7284 89.5057 28.4518C89.9892 28.2098 90.369 27.8296 90.6453 27.3801V24.7527H89.1259C87.0885 24.7527 85.9835 25.4787 85.8454 26.8961V27.1381C85.8454 27.6221 86.018 28.0716 86.3979 28.3827C86.7777 28.7284 87.2957 28.9013 87.8482 28.8667ZM106.495 20.2239C106.012 20.1548 105.528 20.1202 105.01 20.1202C103.456 20.1202 102.455 20.6388 101.972 21.6759V31.7015H97.8969V16.3865H101.764L101.868 18.2188C102.524 16.9051 103.836 16.11 105.287 16.11C105.701 16.11 106.15 16.1791 106.564 16.2828L106.495 20.2239ZM116.924 31.7361C116.717 31.2867 116.578 30.8372 116.509 30.3533C115.542 31.4595 114.127 32.0472 112.642 32.0127C111.295 32.0472 109.948 31.5978 108.912 30.699C107.946 29.8693 107.393 28.6593 107.428 27.4147C107.359 25.9282 108.049 24.5453 109.223 23.681C110.432 22.8168 112.158 22.3673 114.437 22.3673H116.337V21.5031C116.371 20.8808 116.164 20.2931 115.784 19.8091C115.335 19.3597 114.714 19.1177 114.058 19.1868C113.471 19.1522 112.884 19.3251 112.435 19.6708C112.055 20.0165 111.813 20.5005 111.848 21.0191H107.738C107.738 20.1202 108.015 19.2559 108.567 18.5645C109.154 17.7694 109.983 17.1471 110.881 16.8014C111.951 16.352 113.091 16.1445 114.265 16.1445C115.888 16.0408 117.476 16.5594 118.754 17.562C119.893 18.5645 120.515 20.0511 120.411 21.5722V28.2098C120.342 29.3507 120.55 30.457 121.033 31.5287V31.7707H116.924V31.7361ZM113.54 28.8667C114.127 28.8667 114.679 28.7284 115.197 28.4518C115.681 28.2098 116.06 27.8296 116.337 27.3801V24.7527H114.817C112.78 24.7527 111.675 25.4787 111.537 26.8961V27.1381C111.537 27.6221 111.709 28.0716 112.089 28.3827C112.469 28.7284 112.987 28.9013 113.54 28.8667ZM128.492 12.6183V16.3865H131.116V19.3942H128.492V27.0344C128.457 27.4493 128.561 27.8987 128.803 28.2444C129.148 28.521 129.597 28.6593 130.046 28.6247C130.46 28.6247 130.84 28.5901 131.254 28.521V31.6324C130.46 31.8744 129.631 32.0127 128.768 32.0127C125.902 32.0127 124.452 30.5607 124.383 27.6567V19.3942H122.138V16.3865H124.383V12.6183H128.492ZM132.325 23.923C132.29 22.5056 132.601 21.1228 133.188 19.8436C133.741 18.7028 134.604 17.7348 135.709 17.078C136.883 16.4211 138.195 16.0754 139.542 16.11C141.407 16.0408 143.237 16.7323 144.618 18.0114C145.965 19.3942 146.759 21.2265 146.794 23.1625L146.828 24.1996C146.932 26.2739 146.206 28.3136 144.86 29.8693C143.478 31.3212 141.579 32.0818 139.576 32.0127C137.574 32.1164 135.674 31.3212 134.293 29.8693C132.912 28.279 132.187 26.2047 132.325 24.0959V23.923ZM136.4 24.1996C136.33 25.375 136.607 26.5504 137.228 27.553C137.746 28.3136 138.644 28.763 139.576 28.6938C140.509 28.7284 141.372 28.3136 141.89 27.553C142.546 26.4467 142.822 25.1676 142.719 23.8885C142.788 22.713 142.512 21.5722 141.89 20.5696C141.372 19.8091 140.474 19.3597 139.542 19.3942C138.61 19.3597 137.746 19.8091 137.228 20.5696C136.607 21.6759 136.296 22.955 136.4 24.1996ZM153.113 16.3865L153.251 18.1497C154.321 16.8014 155.944 16.0408 157.671 16.11C159.018 16.0063 160.364 16.5248 161.297 17.5274C162.195 18.7719 162.609 20.2931 162.505 21.8142V31.7015H158.431V21.9179C158.5 21.2265 158.293 20.5696 157.878 20.0165C157.36 19.5671 156.67 19.3597 155.979 19.4288C154.908 19.3942 153.907 19.9474 153.389 20.9154V31.7361H149.28V16.3865H153.113ZM174.453 31.7361C174.246 31.2867 174.108 30.8372 174.039 30.3533C173.072 31.4595 171.656 32.0472 170.171 32.0127C168.825 32.0472 167.478 31.5978 166.442 30.699C165.475 29.8693 164.923 28.6593 164.957 27.4147C164.888 25.9282 165.579 24.5453 166.753 23.681C167.961 22.8168 169.688 22.3673 171.967 22.3673H173.866V21.5031C173.901 20.8808 173.694 20.2931 173.314 19.8091C172.865 19.3597 172.243 19.1177 171.587 19.1868C171 19.1522 170.413 19.3251 169.964 19.6708C169.584 20.0165 169.343 20.5005 169.377 21.0191H165.302C165.302 20.1202 165.579 19.2559 166.131 18.5645C166.718 17.7694 167.547 17.1471 168.445 16.8014C169.515 16.352 170.655 16.1445 171.829 16.1445C173.452 16.0408 175.04 16.5594 176.318 17.562C177.458 18.5645 178.079 20.0511 177.975 21.5722V28.2098C177.906 29.3507 178.114 30.457 178.597 31.5287V31.7707H174.453V31.7361ZM171.069 28.8667C171.656 28.8667 172.209 28.7284 172.727 28.4518C173.21 28.2098 173.59 27.8296 173.866 27.3801V24.7527H172.347C170.309 24.7527 169.204 25.4787 169.066 26.8961V27.1381C169.066 27.6221 169.239 28.0716 169.619 28.3827C169.999 28.7284 170.551 28.9013 171.069 28.8667Z" fill="#F5F5FA"></path><path d="M12.9148 21.5379L0 29.0053V14.0706L12.9148 21.5379Z" fill="#8257E6"></path><path d="M44.3383 21.5378L7.00977 43.1101V33.9834L28.5574 21.5378L7.00977 9.09219V0L44.3383 21.5378Z" fill="#8257E6"></path><path d="M181.152 31.7364V11.0283H187.506C189.336 11.0283 190.959 11.4432 192.375 12.2729C193.825 13.1026 194.93 14.2434 195.725 15.7646C196.519 17.2857 196.933 18.9797 196.933 20.9156V21.8836C196.933 23.8196 196.553 25.5136 195.759 27.0347C194.965 28.5213 193.86 29.6967 192.41 30.5264C190.959 31.3561 189.336 31.771 187.541 31.771H181.152V31.7364ZM185.434 14.4854V28.3139H187.506C189.164 28.3139 190.441 27.7607 191.339 26.689C192.237 25.5827 192.686 24.027 192.686 22.0219V20.9156C192.686 18.8068 192.237 17.2165 191.374 16.1448C190.51 15.0731 189.233 14.52 187.541 14.52H185.434V14.4854Z" fill="#8257E6"></path><path d="M199.765 12.342C199.765 11.7197 199.972 11.2011 200.387 10.8209C200.801 10.406 201.354 10.2332 202.079 10.2332C202.769 10.2332 203.322 10.4406 203.771 10.8209C204.185 11.2357 204.392 11.7197 204.392 12.342C204.392 12.9643 204.185 13.4828 203.771 13.8631C203.356 14.278 202.804 14.4508 202.113 14.4508C201.423 14.4508 200.87 14.2434 200.456 13.8631C199.972 13.4828 199.765 12.9643 199.765 12.342ZM204.151 31.7364H200.041V16.3177H204.151V31.7364Z" fill="#8257E6"></path><path d="M215.856 27.4841C215.856 26.9656 215.615 26.5853 215.097 26.3087C214.579 26.0322 213.785 25.7556 212.714 25.5482C209.054 24.7876 207.224 23.2319 207.224 20.8811C207.224 19.5328 207.776 18.3919 208.916 17.4585C210.055 16.5597 211.54 16.0757 213.37 16.0757C215.304 16.0757 216.892 16.5251 218.066 17.4585C219.241 18.3919 219.828 19.5674 219.828 21.0539H215.718C215.718 20.4662 215.546 19.9822 215.166 19.6019C214.786 19.2217 214.199 19.0142 213.405 19.0142C212.714 19.0142 212.162 19.1871 211.816 19.4982C211.436 19.8094 211.264 20.2242 211.264 20.7082C211.264 21.1576 211.471 21.5379 211.92 21.8145C212.334 22.091 213.094 22.333 214.095 22.5405C215.131 22.7479 215.995 22.9899 216.685 23.2319C218.861 24.027 219.931 25.4099 219.931 27.3804C219.931 28.7978 219.344 29.9041 218.136 30.803C216.927 31.6672 215.373 32.1167 213.474 32.1167C212.196 32.1167 211.057 31.8747 210.055 31.4252C209.054 30.9758 208.26 30.319 207.707 29.5238C207.155 28.7287 206.844 27.8644 206.844 26.931H210.642C210.677 27.657 210.953 28.2101 211.436 28.625C211.954 29.0053 212.611 29.2127 213.439 29.2127C214.233 29.2127 214.821 29.0744 215.235 28.7633C215.649 28.3484 215.856 27.9681 215.856 27.4841Z" fill="#8257E6"></path><path d="M228.875 28.6941C229.635 28.6941 230.256 28.4867 230.705 28.0718C231.188 27.657 231.43 27.1039 231.43 26.4124H235.263C235.263 27.4496 234.952 28.4176 234.4 29.2818C233.847 30.1461 233.088 30.8375 232.121 31.287C231.154 31.7709 230.083 32.0129 228.909 32.0129C226.699 32.0129 224.973 31.3215 223.695 29.9041C222.417 28.5213 221.796 26.5853 221.796 24.0962V23.8542C221.796 21.4688 222.417 19.6019 223.695 18.1845C224.938 16.7671 226.699 16.0757 228.875 16.0757C230.809 16.0757 232.328 16.6288 233.502 17.7351C234.676 18.8414 235.263 20.2934 235.263 22.1256H231.43C231.396 21.3305 231.154 20.6736 230.705 20.1896C230.222 19.7056 229.6 19.4291 228.84 19.4291C227.873 19.4291 227.148 19.7748 226.665 20.4662C226.181 21.1576 225.94 22.2985 225.94 23.8542V24.269C225.94 25.8593 226.181 27.0001 226.665 27.6916C227.148 28.3484 227.873 28.6941 228.875 28.6941Z" fill="#8257E6"></path><path d="M237.024 23.8887C237.024 22.3676 237.301 20.9848 237.922 19.8094C238.509 18.5994 239.338 17.7005 240.443 17.0437C241.548 16.3868 242.826 16.0757 244.276 16.0757C246.348 16.0757 248.04 16.698 249.352 17.9771C250.664 19.2562 251.389 20.9848 251.562 23.1628L251.597 24.1999C251.597 26.5507 250.941 28.4521 249.628 29.8695C248.316 31.287 246.555 32.0129 244.345 32.0129C242.135 32.0129 240.374 31.287 239.027 29.8695C237.681 28.4521 237.059 26.5161 237.059 24.0616V23.8887H237.024ZM241.134 24.1653C241.134 25.6173 241.41 26.7581 241.962 27.5187C242.515 28.2793 243.309 28.6941 244.311 28.6941C245.312 28.6941 246.072 28.3138 246.624 27.5533C247.177 26.7927 247.453 25.5827 247.453 23.8887C247.453 22.4713 247.177 21.3305 246.624 20.5699C246.072 19.7748 245.277 19.3945 244.276 19.3945C243.275 19.3945 242.48 19.7748 241.962 20.5699C241.375 21.3305 241.134 22.5405 241.134 24.1653Z" fill="#8257E6"></path><path d="M259.642 26.6889L262.508 16.3176H266.79L261.61 31.7017H257.674L252.494 16.3176H256.776L259.642 26.6889Z" fill="#8257E6"></path><path d="M275.665 32.0128C273.421 32.0128 271.59 31.3214 270.175 29.9386C268.759 28.5557 268.034 26.7235 268.034 24.4072V23.9924C268.034 22.4367 268.344 21.0538 268.932 19.8438C269.519 18.6338 270.382 17.7004 271.452 17.0436C272.523 16.3867 273.8 16.041 275.182 16.041C277.288 16.041 278.946 16.6979 280.154 18.0461C281.363 19.3944 281.95 21.2612 281.95 23.6812V25.3752H272.177C272.316 26.3778 272.695 27.1729 273.386 27.7952C274.042 28.4175 274.905 28.694 275.907 28.694C277.495 28.694 278.738 28.1063 279.602 26.9655L281.605 29.2126C280.983 30.0769 280.154 30.7683 279.118 31.2523C278.082 31.7363 276.943 32.0128 275.665 32.0128ZM275.216 19.3598C274.387 19.3598 273.731 19.6364 273.248 20.1895C272.73 20.7427 272.419 21.5378 272.281 22.5749H277.979V22.2292C277.944 21.3304 277.703 20.6044 277.254 20.1204C276.736 19.6018 276.08 19.3598 275.216 19.3598Z" fill="#8257E6"></path><path d="M292.965 20.1895C292.413 20.1204 291.929 20.0858 291.481 20.0858C289.927 20.0858 288.925 20.6044 288.442 21.6761V31.7363H284.333V16.3176H288.2L288.304 18.1498C289.132 16.7324 290.272 16.041 291.722 16.041C292.171 16.041 292.62 16.1102 293 16.2139L292.965 20.1895Z" fill="#8257E6"></path></svg>